<?xml version="1.0" encoding="iso-8859-1"?>
<!-- Uploaded to: SVG Repo, www.svgrepo.com, Generator: SVG Repo Mixer Tools -->
<svg version="1.1" id="Layer_1" xmlns="http://www.w3.org/2000/svg" xmlns:xlink="http://www.w3.org/1999/xlink" 
	 viewBox="0 0 512 512" xml:space="preserve">
<path style="fill:#A0DBFD;" d="M379.288,120.869v-51.17H134.75v51.17c0,56.254,37.992,103.629,89.717,117.88
	c7.791,2.147,13.157,9.275,13.157,17.356l0,0c0,8.081-5.366,15.209-13.157,17.356c-51.724,14.251-89.717,61.626-89.717,117.88v51.17
	h244.538v-51.17c0-56.254-37.992-103.629-89.716-117.88c-7.791-2.147-13.157-9.275-13.157-17.356l0,0
	c0-8.081,5.366-15.209,13.157-17.356C341.296,224.498,379.288,177.123,379.288,120.869z"/>
<path style="fill:#87CEE9;" d="M245.695,256.105c0,4.037-0.779,7.846-2.144,10.912c-1.342,3.055-3.27,5.366-5.546,6.444
	c-30.198,14.242-52.382,61.629-52.382,117.88v51.172H134.75v-51.172c0-56.251,37.996-103.638,89.719-117.88
	c3.893-1.078,7.175-3.39,9.499-6.444c2.312-3.066,3.653-6.876,3.653-10.912c0-8.085-5.366-15.213-13.152-17.357
	c-51.723-14.254-89.719-61.629-89.719-117.88V69.697h50.873v51.172c0,56.251,22.184,103.626,52.382,117.88
	C242.557,240.893,245.695,248.02,245.695,256.105z"/>
<path style="fill:#C1E9FD;" d="M280.061,245.193c-2.312,3.066-3.653,6.876-3.653,10.912c0,8.085,5.366,15.213,13.164,17.357
	c51.723,14.242,89.719,61.629,89.719,117.88v51.172h-50.873v-51.172c0-56.251-22.184-103.638-52.394-117.88
	c-4.552-2.144-7.678-9.271-7.678-17.357c0-4.037,0.779-7.846,2.132-10.912c1.354-3.055,3.27-5.366,5.546-6.444
	c30.21-14.254,52.394-61.629,52.394-117.88V69.697h50.873v51.172c0,56.251-37.996,103.626-89.719,117.88
	C285.667,239.827,282.385,242.139,280.061,245.193z"/>
<path style="fill:#FED159;" d="M257.019,329.387l87.53,78.386H169.488L257.019,329.387z M344.55,120.869
	c0,39.273-26.403,73.975-64.207,84.391c-9.05,2.494-17.012,7.297-23.324,13.669c-6.314-6.371-14.276-11.176-23.326-13.669
	c-37.804-10.415-64.207-45.119-64.207-84.391h0.001C226.339,139.607,287.701,139.607,344.55,120.869L344.55,120.869z"/>
<path style="fill:#F6C454;" d="M169.493,407.777h43.122l44.404-78.387L169.493,407.777z M245.185,205.257
	c-17.441-9.463-30.09-39.026-32.246-73.835c-14.674-2.336-29.203-5.857-43.446-10.553c0,39.277,26.401,73.979,64.205,84.388
	c9.044,2.492,17.009,7.295,23.322,13.667C253.821,212.552,249.784,207.748,245.185,205.257z"/>
<g>
	<rect x="103.374" y="442.508" style="fill:#65B4BB;" width="307.295" height="60.611"/>
	<rect x="103.374" y="9.088" style="fill:#65B4BB;" width="307.295" height="60.611"/>
</g>
<g>
	<rect x="103.374" y="442.508" style="fill:#57A3A7;" width="48.563" height="60.611"/>
	<rect x="103.374" y="9.088" style="fill:#57A3A7;" width="48.563" height="60.611"/>
</g>
<path d="M290.939,247.306c56.708-15.624,96.314-67.659,96.314-126.542V78.579h22.396c4.963,0,8.984-4.022,8.984-8.984V8.984
	c0-4.961-4.021-8.984-8.984-8.984H102.351c-4.963,0-8.984,4.022-8.984,8.984v60.611c0,4.961,4.021,8.984,8.984,8.984h22.396v42.186
	c0,58.881,39.606,110.917,96.314,126.542c3.863,1.065,6.561,4.639,6.561,8.694s-2.698,7.63-6.561,8.694
	c-56.708,15.624-96.314,67.66-96.314,126.542v42.186h-22.396c-4.963,0-8.984,4.022-8.984,8.984v60.611
	c0,4.961,4.021,8.984,8.984,8.984h247.818c4.963,0,8.984-4.022,8.984-8.984c0-4.961-4.021-8.984-8.984-8.984H111.335v-42.643h289.33
	v42.643h-18.156c-4.963,0-8.984,4.022-8.984,8.984c0,4.961,4.021,8.984,8.984,8.984h27.14c4.963,0,8.984-4.022,8.984-8.984v-60.611
	c0-4.961-4.021-8.984-8.984-8.984h-22.396v-42.186c0-58.883-39.606-110.918-96.315-126.542c-3.862-1.064-6.559-4.639-6.559-8.694
	S287.076,248.37,290.939,247.306z M111.335,17.968h289.33v42.643h-289.33V17.968z M266.41,256c0,12.114,8.124,22.813,19.755,26.016
	c48.939,13.483,83.12,58.396,83.12,109.22v42.186h-226.57v-42.186c0-50.823,34.179-95.735,83.118-109.22
	c11.632-3.203,19.756-13.902,19.756-26.016c0-12.114-8.124-22.812-19.755-26.016c-48.939-13.484-83.12-58.396-83.12-109.22V78.579
	h226.569v42.186c0,50.823-34.179,95.737-83.12,109.22C274.534,233.188,266.41,243.886,266.41,256z"/>
<path d="M250.008,322.589l-18.593,16.65c-3.697,3.31-4.01,8.99-0.7,12.686c3.31,3.695,8.99,4.01,12.685,0.7l12.601-11.283
	l64.032,57.342H191.969l25.866-23.164c3.697-3.311,4.01-8.99,0.7-12.686c-3.31-3.695-8.99-4.012-12.685-0.698l-43.373,38.84
	c-2.774,2.484-3.728,6.423-2.399,9.901c1.33,3.479,4.668,5.776,8.392,5.776h175.062c3.723,0,7.063-2.297,8.392-5.776
	c1.328-3.479,0.375-7.416-2.399-9.9l-87.53-78.385C258.584,319.536,253.42,319.535,250.008,322.589z"/>
<path d="M348.796,113.485c-2.335-1.689-5.34-2.157-8.077-1.253c-54.633,18.006-114.808,18.006-169.438,0
	c-2.742-0.903-5.744-0.436-8.077,1.253c-2.336,1.689-3.718,4.396-3.718,7.279c0,43.301,29.116,81.566,70.803,93.052
	c7.291,2.009,13.975,5.927,19.331,11.33c1.687,1.703,3.984,2.66,6.381,2.66c2.398,0,4.696-0.958,6.382-2.662
	c5.353-5.403,12.037-9.322,19.328-11.33c41.689-11.485,70.803-49.749,70.803-93.051
	C352.515,117.882,351.133,115.175,348.796,113.485z M276.938,196.493c-7.584,2.089-14.698,5.635-20.937,10.398
	c-6.242-4.764-13.356-8.309-20.938-10.398c-29.872-8.23-51.809-33.364-56.62-63.317c50.476,14.029,104.639,14.028,155.115,0
	C328.748,163.131,306.811,188.264,276.938,196.493z"/>
</svg>